<svg xmlns:mydata="http://www.w3.org/2000/svg" mydata:contrastcolor="78D64B" mydata:template="Contrast" mydata:presentation="2.5" mydata:layouttype="undefined" mydata:specialfontid="undefined" mydata:id1="917" mydata:id2="000" mydata:companyname="Earth Side" mydata:companytagline="Retreats" version="1.1" xmlns="http://www.w3.org/2000/svg" xmlns:xlink="http://www.w3.org/1999/xlink" viewBox="65 175 422 120"><g fill="#FFFFFF" fill-rule="nonzero" stroke="none" stroke-width="1" stroke-linecap="butt" stroke-linejoin="miter" stroke-miterlimit="10" stroke-dasharray="" stroke-dashoffset="0" font-family="none" font-weight="none" font-size="none" text-anchor="none" style="mix-blend-mode: normal"><g data-paper-data="{&quot;isGlobalGroup&quot;:true,&quot;bounds&quot;:{&quot;x&quot;:64.99999999999999,&quot;y&quot;:175.7343131261082,&quot;width&quot;:420,&quot;height&quot;:118.53137374778362}}"><g fill="#978667" data-paper-data="{&quot;textHeightFactor&quot;:0.479392853378307,&quot;isSecondaryText&quot;:true}"><path d="M183.68317,277.32699v-12.2084h5.413c1.08815,0 1.91537,0.10965 2.48165,0.32894c0.56628,0.2193 1.01875,0.60653 1.35741,1.16171c0.33866,0.55518 0.50799,1.16865 0.50799,1.84042c0,0.86608 -0.28037,1.59614 -0.8411,2.19018c-0.56073,0.59404 -1.42681,0.97156 -2.59824,1.13257c0.42749,0.20542 0.75227,0.40806 0.97434,0.60792c0.4719,0.43304 0.91882,0.97434 1.34076,1.6239l2.12356,3.32275h-2.03196l-1.61557,-2.53995c-0.4719,-0.73284 -0.86053,-1.29357 -1.16588,-1.68219c-0.30535,-0.38863 -0.57877,-0.66066 -0.82028,-0.81611c-0.2415,-0.15545 -0.48717,-0.26371 -0.737,-0.32478c-0.18321,-0.03886 -0.48301,-0.05829 -0.89939,-0.05829h-1.87373v5.42133zM185.29874,270.50661h3.47265c0.73839,0 1.31578,-0.07634 1.73216,-0.22901c0.41638,-0.15267 0.73284,-0.39695 0.94936,-0.73284c0.21652,-0.33588 0.32478,-0.70091 0.32478,-1.09509c0,-0.57739 -0.20958,-1.05207 -0.62874,-1.42404c-0.41916,-0.37197 -1.08121,-0.55796 -1.98616,-0.55796h-3.86405z" data-paper-data="{&quot;glyphName&quot;:&quot;R&quot;,&quot;glyphIndex&quot;:0,&quot;firstGlyphOfWord&quot;:true,&quot;word&quot;:1}"></path><path d="M218.56812,277.32699v-12.2084h8.82736v1.44069h-7.21178v3.73914h6.75376v1.43236h-6.75376v4.15552h7.49493v1.44069z" data-paper-data="{&quot;glyphName&quot;:&quot;E&quot;,&quot;glyphIndex&quot;:1,&quot;word&quot;:1}"></path><path d="M254.57776,277.32699v-10.76771h-4.02228v-1.44069h9.67678v1.44069h-4.03893v10.76771z" data-paper-data="{&quot;glyphName&quot;:&quot;T&quot;,&quot;glyphIndex&quot;:2,&quot;word&quot;:1}"></path><path d="M284.97912,277.32699v-12.2084h5.413c1.08815,0 1.91537,0.10965 2.48165,0.32894c0.56628,0.2193 1.01875,0.60653 1.35741,1.16171c0.33866,0.55518 0.50799,1.16865 0.50799,1.84042c0,0.86608 -0.28037,1.59614 -0.8411,2.19018c-0.56073,0.59404 -1.42681,0.97156 -2.59824,1.13257c0.42749,0.20542 0.75227,0.40806 0.97434,0.60792c0.4719,0.43304 0.91882,0.97434 1.34076,1.6239l2.12356,3.32275h-2.03196l-1.61557,-2.53995c-0.4719,-0.73284 -0.86053,-1.29357 -1.16588,-1.68219c-0.30535,-0.38863 -0.57877,-0.66066 -0.82028,-0.81611c-0.2415,-0.15545 -0.48717,-0.26371 -0.737,-0.32478c-0.18321,-0.03886 -0.48301,-0.05829 -0.89939,-0.05829h-1.87373v5.42133zM286.5947,270.50661h3.47265c0.73839,0 1.31578,-0.07634 1.73216,-0.22901c0.41638,-0.15267 0.73284,-0.39695 0.94936,-0.73284c0.21652,-0.33588 0.32478,-0.70091 0.32478,-1.09509c0,-0.57739 -0.20958,-1.05207 -0.62874,-1.42404c-0.41916,-0.37197 -1.08121,-0.55796 -1.98616,-0.55796h-3.86405z" data-paper-data="{&quot;glyphName&quot;:&quot;R&quot;,&quot;glyphIndex&quot;:3,&quot;word&quot;:1}"></path><path d="M319.86408,277.32699v-12.2084h8.82736v1.44069h-7.21178v3.73914h6.75376v1.43236h-6.75376v4.15552h7.49493v1.44069z" data-paper-data="{&quot;glyphName&quot;:&quot;E&quot;,&quot;glyphIndex&quot;:4,&quot;word&quot;:1}"></path><path d="M351.99451,277.32699l4.68849,-12.2084h1.74049l4.99662,12.2084h-1.84042l-1.42404,-3.6975h-5.10488l-1.34076,3.6975zM355.51713,272.31372h4.13886l-1.27414,-3.38104c-0.38863,-1.02708 -0.67732,-1.87096 -0.86608,-2.53162c-0.15545,0.7828 -0.37475,1.56005 -0.65789,2.33175z" data-paper-data="{&quot;glyphName&quot;:&quot;A&quot;,&quot;glyphIndex&quot;:5,&quot;word&quot;:1}"></path><path d="M386.78758,277.32699v-10.76771h-4.02228v-1.44069h9.67678v1.44069h-4.03893v10.76771z" data-paper-data="{&quot;glyphName&quot;:&quot;T&quot;,&quot;glyphIndex&quot;:6,&quot;word&quot;:1}"></path><path d="M415.23167,273.40465l1.52397,-0.13324c0.07217,0.6107 0.24012,1.11175 0.50383,1.50315c0.26371,0.3914 0.67316,0.70785 1.22834,0.94936c0.55518,0.2415 1.17976,0.36225 1.87373,0.36225c0.61625,0 1.16033,-0.0916 1.63223,-0.27481c0.4719,-0.18321 0.82305,-0.43443 1.05345,-0.75366c0.2304,-0.31923 0.3456,-0.6676 0.3456,-1.04513c0,-0.38307 -0.11104,-0.71757 -0.33311,-1.00349c-0.22207,-0.28592 -0.58849,-0.52603 -1.09926,-0.72035c-0.32756,-0.12769 -1.05207,-0.32617 -2.17353,-0.59543c-1.12146,-0.26926 -1.90704,-0.52326 -2.35674,-0.76198c-0.58294,-0.30535 -1.01737,-0.68426 -1.30328,-1.13673c-0.28592,-0.45247 -0.42888,-0.95907 -0.42888,-1.5198c0,-0.61625 0.17488,-1.19225 0.52464,-1.728c0.34976,-0.53575 0.86053,-0.94242 1.5323,-1.22001c0.67177,-0.27759 1.41848,-0.41638 2.24015,-0.41638c0.90494,0 1.70301,0.14573 2.39421,0.4372c0.6912,0.29147 1.22278,0.72035 1.59475,1.28663c0.37197,0.56628 0.57184,1.20752 0.59959,1.9237l-1.54895,0.11659c-0.08328,-0.7717 -0.36503,-1.35464 -0.84526,-1.74882c-0.48023,-0.39418 -1.18947,-0.59127 -2.12773,-0.59127c-0.97712,0 -1.68913,0.17905 -2.13605,0.53714c-0.44692,0.35809 -0.67038,0.78974 -0.67038,1.29496c0,0.43859 0.15823,0.79946 0.47468,1.0826c0.3109,0.28314 1.12285,0.57322 2.43585,0.87024c1.313,0.29702 2.21378,0.55657 2.70234,0.77864c0.71063,0.32756 1.23527,0.74255 1.57393,1.24499c0.33866,0.50244 0.50799,1.08121 0.50799,1.73632c0,0.64956 -0.18599,1.26165 -0.55796,1.83626c-0.37197,0.57461 -0.90633,1.02153 -1.60308,1.34076c-0.69675,0.31923 -1.48094,0.47884 -2.35257,0.47884c-1.10481,0 -2.03057,-0.161 -2.77729,-0.48301c-0.74672,-0.322 -1.33243,-0.8064 -1.75714,-1.45318c-0.42471,-0.64678 -0.64817,-1.37823 -0.67038,-2.19435z" data-paper-data="{&quot;glyphName&quot;:&quot;S&quot;,&quot;glyphIndex&quot;:7,&quot;lastGlyphOfWord&quot;:true,&quot;word&quot;:1}"></path><path d="M183.68317,252.27728v-1.07705h301.31683v1.07705z" data-paper-data="{&quot;isContainerTopLineAboveSecondaryText&quot;:true}"></path></g><g data-paper-data="{&quot;isPrimaryText&quot;:true}"><path d="M192.56049,203.22004c0.11381,-0.05691 0.17072,-0.11381 0.28453,-0.11381c3.58507,-0.85359 7.34086,-1.25193 10.98284,-1.25193c1.9348,0 3.92651,0.17072 5.69059,0.17072c2.50386,0 4.15413,-2.04861 4.15413,-4.09723c0,-5.12153 -6.20275,-4.43866 -10.35688,-4.43866c-4.49557,0 -8.87732,0.62597 -13.03146,1.65027c-0.11381,0.05691 -0.17072,0.05691 -0.28453,0.05691c-0.45525,0 -1.13812,-0.28453 -1.70718,-0.28453c-2.73148,0 -4.60938,2.67458 -4.60938,5.29225c0,1.08121 0.56906,2.61767 0.56906,3.8696c0.28453,10.24307 0.85359,20.31541 0.85359,31.12754c0,0.51215 -0.17072,1.08121 -0.17072,1.59337c0,2.16242 1.8779,4.09723 4.26794,4.09723c0.39834,0 0.85359,-0.05691 1.25193,-0.11381c4.72319,-0.91049 9.78782,-1.70718 15.02316,-1.8779c4.21104,-0.17072 9.38948,0.34144 9.38948,-4.21104c0,-2.67458 -2.04861,-4.26794 -4.837,-4.26794c-5.40606,0 -10.81212,0.45525 -16.67343,1.30884c-0.05691,-3.24364 -0.17072,-6.43037 -0.28453,-9.6171c0.17072,0 0.34144,-0.17072 0.56906,-0.17072c5.57678,-1.82099 13.4298,-1.08121 13.4298,-6.20275c0,-2.39005 -2.04861,-4.15413 -4.21104,-4.15413c-2.9022,0 -6.7149,0.9674 -9.6171,1.76408c-0.11381,0.05691 -0.22762,0.05691 -0.39834,0.05691c-0.11381,-3.41436 -0.17072,-6.7718 -0.28453,-10.18616z" data-paper-data="{&quot;glyphName&quot;:&quot;E&quot;,&quot;glyphIndex&quot;:0,&quot;firstGlyphOfWord&quot;:true,&quot;word&quot;:1}"></path><path d="M239.73549,236.5669c0.39834,2.44695 1.59337,4.32485 4.21104,4.32485c2.10552,0 3.75579,-1.53646 4.09723,-3.52817c1.25193,-7.39777 2.39005,-15.76294 2.39005,-23.61596c0,-10.07235 -4.49557,-17.41321 -12.74693,-17.41321c-5.69059,0 -16.61653,6.37346 -16.61653,15.64913c0,2.33314 1.76408,4.66629 4.21104,4.66629c2.16242,0 3.92651,-1.9348 4.09723,-4.43866c0.34144,-2.95911 4.72319,-7.56849 8.30826,-7.56849c3.75579,0 4.38176,5.12153 4.38176,9.04804c0,1.53646 -0.05691,3.07292 -0.11381,4.66629c0,0.11381 0,0.22762 -0.05691,0.34144c-0.17072,-0.05691 -0.28453,-0.11381 -0.34144,-0.17072c-3.07292,-1.47955 -6.25965,-2.44695 -9.6171,-2.44695c-7.17015,0 -14.22648,5.57678 -14.22648,12.80383c0,6.94252 6.60109,10.07235 12.57621,10.07235c3.12983,0 6.60109,-0.9674 9.44638,-2.39005zM238.99572,226.72218c-0.11381,0.17072 -0.17072,0.22762 -0.28453,0.28453c-2.33314,2.10552 -5.12153,3.58507 -8.47898,3.58507c-1.13812,0 -4.21104,-0.56906 -4.21104,-1.65027c0,-2.8453 3.47126,-4.49557 6.03203,-4.49557c1.9348,0 4.43866,0.68287 6.31656,1.8779c0.11381,0.11381 0.45525,0.39834 0.62597,0.39834z" data-paper-data="{&quot;glyphName&quot;:&quot;a&quot;,&quot;glyphIndex&quot;:1,&quot;word&quot;:1}"></path><path d="M274.33429,206.57749c0.85359,0.85359 1.99171,1.36574 3.07292,1.36574c2.50386,0 4.15413,-2.10552 4.15413,-4.15413c0,-3.69888 -3.98341,-5.86131 -6.65799,-5.86131c-5.29225,0 -9.84472,5.17844 -12.29168,9.56019c-0.11381,0.11381 -0.11381,0.28453 -0.28453,0.34144c-0.05691,-0.11381 -0.05691,-0.22762 -0.05691,-0.28453c0,-3.92651 0.56906,-9.04804 -4.38176,-9.04804c-2.16242,0 -4.04032,1.82099 -4.04032,4.43866c0.22762,11.03975 0.45525,22.19331 0.56906,33.28996c0.11381,2.44695 2.44695,4.66629 4.55247,4.66629c3.92651,0 4.15413,-3.41436 4.38176,-6.7718c0.73978,-6.60109 2.27624,-13.77123 5.34916,-20.25851c1.30884,-2.73148 3.07292,-5.97512 5.63369,-7.28396z" data-paper-data="{&quot;glyphName&quot;:&quot;r&quot;,&quot;glyphIndex&quot;:2,&quot;word&quot;:1}"></path><path d="M292.88562,209.36588c0,-2.9022 0.85359,-6.08893 0.85359,-9.38948c0,-2.27624 -2.04861,-4.09723 -4.21104,-4.09723c-4.7801,0 -4.26794,5.69059 -4.60938,9.38948c-0.17072,1.53646 -0.22762,5.00772 -0.85359,5.46297c-1.25193,0.91049 -1.9348,1.99171 -1.9348,3.47126c0,1.42265 0.68287,2.61767 1.82099,3.41436c0.45525,0.28453 0.34144,6.31656 0.62597,8.19445c0.85359,6.54418 4.49557,15.08007 11.95024,15.08007c5.8044,0 11.5519,-6.03203 11.5519,-11.495c0,-2.33314 -1.99171,-4.04032 -4.09723,-4.04032c-1.82099,0 -3.41436,1.25193 -4.04032,2.9022c-0.45525,1.19502 -1.13812,4.26794 -3.24364,4.26794c-0.22762,0 -0.45525,-0.11381 -0.62597,-0.28453c-3.58507,-2.61767 -3.41436,-9.67401 -3.52817,-14.05576c0,-0.17072 0.05691,-0.28453 0.05691,-0.51215c1.53646,0 3.64198,0.22762 5.69059,0.22762c3.75579,0 7.45468,-0.68287 7.45468,-4.55247c0,-2.04861 -1.9348,-4.04032 -4.38176,-4.04032c-2.8453,0 -5.63369,0.05691 -8.47898,0.05691z" data-paper-data="{&quot;glyphName&quot;:&quot;t&quot;,&quot;glyphIndex&quot;:3,&quot;word&quot;:1}"></path><path d="M319.6314,217.67414c0,-3.41436 -0.11381,-6.88562 -0.28453,-10.29997c0,-4.55247 0.85359,-10.69831 -4.38176,-10.69831c-1.99171,0 -4.04032,1.65027 -4.04032,4.09723c0.22762,9.73091 0.39834,19.12039 0.62597,28.73749c0.11381,4.49557 -0.91049,11.38118 4.32485,11.38118c2.44695,0 4.15413,-1.9348 4.15413,-4.26794c0,-3.47126 -0.17072,-6.88562 -0.17072,-10.35688c5.46297,-1.65027 11.03975,-2.56077 16.73034,-3.07292c0,3.75579 -0.34144,7.56849 -0.34144,11.32428c0,0.17072 0.05691,0.39834 0.05691,0.56906c0,0.34144 0,0.68287 0,1.02431c0,2.50386 1.59337,4.49557 4.09723,4.49557c3.58507,0 4.04032,-2.8453 4.26794,-6.25965c0.28453,-10.75522 0.91049,-22.59165 0.91049,-33.74521c0,-2.44695 -1.70718,-4.43866 -4.15413,-4.43866c-3.69888,0 -4.09723,3.01601 -4.26794,6.43037c-0.17072,4.04032 -0.34144,8.13755 -0.34144,12.17787c-5.8044,0.51215 -11.495,1.36574 -17.18559,2.9022z" data-paper-data="{&quot;glyphName&quot;:&quot;h&quot;,&quot;glyphIndex&quot;:4,&quot;lastGlyphOfWord&quot;:true,&quot;word&quot;:1}"></path><path d="M383.76437,214.03216c-0.51215,0 -1.08121,0.05691 -1.65027,0.05691v0c0,0 -0.51215,0.05691 -1.30884,0.05691c-1.8779,0 -5.23534,-0.34144 -5.23534,-2.50386c0,-3.69888 3.52817,-8.25136 7.96683,-8.25136c1.19502,0 5.97512,0.91049 6.54418,2.95911c0.68287,1.82099 2.27624,3.01601 3.98341,3.01601c2.27624,0 4.15413,-1.9348 4.15413,-4.38176c0,-0.62597 -0.17072,-1.19502 -0.39834,-1.76408c-2.10552,-5.34916 -8.6497,-8.13755 -14.3972,-8.13755c-8.42208,0 -16.21819,7.62539 -16.21819,16.3889c0,7.56849 6.31656,10.92594 13.08836,10.92594c0.79668,0 2.39005,-0.17072 4.09723,-0.17072c3.24364,0 6.99943,0.62597 6.99943,4.15413c0,3.69888 -5.34916,6.14584 -8.93423,6.14584c-1.76408,0 -5.23534,-0.68287 -6.14584,-2.95911c-0.79668,-1.9348 -2.16242,-3.12983 -4.04032,-3.12983c-2.50386,0 -4.15413,2.04861 -4.15413,4.15413c0,0.45525 0.05691,0.91049 0.22762,1.36574c1.76408,5.97512 8.59279,8.93423 14.11267,8.93423c8.30826,0 17.2994,-6.20275 17.2994,-14.4541c0,-9.84472 -8.42208,-12.40549 -15.99056,-12.40549z" data-paper-data="{&quot;glyphName&quot;:&quot;S&quot;,&quot;glyphIndex&quot;:5,&quot;firstGlyphOfWord&quot;:true,&quot;word&quot;:2}"></path><path d="M412.50186,214.48741c-0.28453,-1.99171 -1.9348,-3.58507 -4.15413,-3.58507c-2.44695,0 -4.09723,1.99171 -4.09723,4.49557c0,7.11324 -0.05691,14.22648 -0.05691,21.33972c0,2.39005 1.99171,4.15413 4.21104,4.15413c2.56077,0 4.15413,-2.04861 4.15413,-4.66629c0,-6.94252 0,-13.88504 0,-20.82757c0,-0.28453 0,-0.62597 -0.05691,-0.91049zM413.41236,198.61066c-1.19502,-1.36574 -3.24364,-2.21933 -5.29225,-2.21933c-3.07292,0 -4.95081,3.47126 -4.95081,6.43037c0,3.41436 2.61767,5.97512 5.57678,5.97512c3.8127,0 6.03203,-3.58507 6.03203,-5.86131c0,-1.9348 -0.45525,-3.24364 -1.36574,-4.32485z" data-paper-data="{&quot;glyphName&quot;:&quot;i&quot;,&quot;glyphIndex&quot;:6,&quot;word&quot;:2}"></path><path d="M418.6477,217.95867h-0.05691c0.11381,3.8127 0.22762,7.56849 0.34144,11.38118c0.11381,4.55247 -1.02431,11.5519 4.26794,11.5519c0.45525,0 0.9674,-0.11381 1.42265,-0.11381c0.45525,0 0.91049,0 1.36574,0c0.45525,0 0.91049,0 1.36574,-0.05691c18.38061,-2.04861 24.9817,-15.19388 24.9817,-28.79439c0,-12.69002 -9.10495,-19.46182 -20.14469,-19.46182c-4.89391,0 -13.99886,0.91049 -13.99886,7.6823c0.17072,5.91822 0.28453,11.89334 0.45525,17.81155zM427.2974,232.35587c0,-9.73091 -0.28453,-20.59994 -0.73978,-30.44467c0,-0.79668 4.66629,-1.08121 5.8044,-1.08121c2.95911,0 5.7475,0.85359 8.25136,2.44695c2.8453,1.82099 3.41436,6.03203 3.41436,9.27566c0,10.29997 -5.69059,18.09608 -14.90935,19.46182c-0.56906,0.17072 -1.30884,0.17072 -1.82099,0.34144z" data-paper-data="{&quot;glyphName&quot;:&quot;d&quot;,&quot;glyphIndex&quot;:7,&quot;word&quot;:2}"></path><path d="M465.08293,227.57577c0.51215,0 0.9674,0.05691 1.47955,0.05691c8.99114,0 15.99056,-6.25965 15.99056,-14.51101c0,-6.94252 -5.97512,-12.23477 -11.89334,-12.23477c-10.18616,0 -15.47841,11.38118 -15.47841,20.54304c0,1.19502 0.28453,3.01601 0.56906,4.49557c1.53646,8.6497 9.38948,14.96626 17.12868,14.96626c0.91049,0 1.82099,-0.11381 2.78839,-0.28453c3.24364,-0.62597 9.33257,-3.69888 9.33257,-7.90992c0,-2.27624 -1.82099,-4.15413 -4.04032,-4.15413c-1.36574,0 -2.44695,0.56906 -3.24364,1.42265c-1.42265,1.53646 -2.67458,2.56077 -4.49557,2.56077c-2.56077,0 -6.60109,-1.82099 -8.13755,-4.95081zM463.831,218.92607c0.28453,-2.21933 1.8779,-9.73091 6.48727,-9.73091c2.61767,0 3.92651,2.21933 3.92651,3.98341c0,4.21104 -4.09723,6.08893 -7.7392,6.08893c-0.91049,0 -1.82099,-0.34144 -2.67458,-0.34144z" data-paper-data="{&quot;glyphName&quot;:&quot;e&quot;,&quot;glyphIndex&quot;:8,&quot;lastGlyphOfWord&quot;:true,&quot;word&quot;:2}"></path></g><g fill="#978667" data-paper-data="{&quot;fillRule&quot;:&quot;nonzero&quot;,&quot;fillRuleOriginal&quot;:&quot;nonzero&quot;,&quot;isIcon&quot;:true,&quot;iconStyle&quot;:&quot;standalone&quot;,&quot;selectedEffects&quot;:{&quot;container&quot;:&quot;&quot;,&quot;transformation&quot;:&quot;&quot;,&quot;pattern&quot;:&quot;&quot;},&quot;bounds&quot;:{&quot;x&quot;:64.99999999999999,&quot;y&quot;:175.7343131261082,&quot;width&quot;:90.78345873979039,&quot;height&quot;:118.53137374778362},&quot;iconType&quot;:&quot;icon&quot;,&quot;rawIconId&quot;:&quot;8f5cf720-f14b-4ff9-963b-604b6e14c36a&quot;,&quot;isDetailed&quot;:false,&quot;suitableAsStandaloneIcon&quot;:true}"><path d="M152.56504,277.8664c3.21758,-5.50102 3.42516,-11.521 3.11378,-15.56892c-0.31138,-3.63275 -1.14172,-6.43515 -1.4531,-7.26549l-0.10379,-0.10379c-0.10379,-0.10379 -0.31138,-0.20758 -0.41517,-0.31138c-0.41517,-1.24552 -1.03793,-2.49103 -1.86827,-3.63275c-0.51897,-0.83034 -1.24552,-1.55689 -2.17965,-2.17965l-0.10379,-0.10379c-2.17965,-2.38723 -5.18964,-4.04792 -9.02997,-4.98205h-0.20758c-0.20758,-0.10379 -0.62276,-0.31138 -1.34931,-0.62276c-0.51897,-0.31138 -1.03793,-0.51897 -1.55689,-0.51897h-0.10379c-2.17965,-0.41517 -4.3593,-0.72655 -6.53894,-1.03793c-0.31138,0 -0.51897,-0.10379 -0.83034,-0.10379h-0.93413h-0.41517h-0.10379c-0.10379,0.10379 -0.20758,0.10379 -0.41517,0.10379c-0.93413,0.10379 -1.66068,0.41517 -1.97207,0.83034c1.66068,0.31138 4.98205,1.24552 9.02997,3.21758c3.00999,1.34931 5.7086,3.11378 7.99204,5.08585c2.80241,2.49103 4.87826,5.29343 6.22757,8.30342v0.41517v0.10379v0.20758c1.55689,3.00999 0.51897,5.91619 -0.31138,8.40722c-0.10379,0.31138 -0.20758,0.51897 -0.20758,0.72655c-1.4531,4.67068 -3.84033,8.19963 -7.1617,10.37928c-0.83034,0.51897 -1.66068,1.03793 -2.49103,1.76448c-1.55689,1.24552 -3.11378,2.38723 -5.08585,3.21758l-2.69862,1.14172c-0.72655,0.31138 -1.4531,0.51897 -2.17965,0.83034c-0.41517,0.10379 -0.72655,0.31138 -0.93413,0.41517h-0.10379c-5.50102,1.34931 -10.58687,2.07586 -15.25754,2.07586c-10.0679,0 -18.26753,-3.11378 -24.59889,-9.44514c-4.3593,-4.46309 -7.57687,-10.48307 -9.75652,-17.85236v-0.10379c-1.03793,-9.02997 0.93413,-16.60685 6.01998,-22.73062c4.77447,-5.8124 11.93617,-10.27548 21.5889,-13.28548c7.78446,-2.38723 14.73858,-3.11378 17.3334,-3.42516h0.10379c0.93413,0.10379 1.86827,0.31138 2.69862,0.62276c0.83034,0.31138 1.66068,0.41517 2.49103,0.72655c1.14172,0.31138 2.38723,0.51897 3.52896,1.24552c0.93413,0.51897 1.66068,0.72655 2.17965,0.72655c0.31138,0 0.72655,0 1.24552,-1.14172c-0.83034,-1.76448 -1.34931,-3.63275 -1.76448,-5.60481c-1.24552,-0.51897 -2.69862,-1.14172 -4.25551,-1.55689v-0.10379c-0.20758,-0.10379 -0.51897,-0.10379 -0.83034,-0.10379c-0.51897,-0.10379 -1.03793,-0.20758 -1.55689,-0.51897c-2.38723,-1.14172 -4.87826,-1.55689 -7.36929,-1.97207c-1.14172,-0.31138 -1.86827,-0.20758 -3.00999,-0.51897c-3.42516,-0.72655 -6.22757,-1.66068 -8.40722,-3.00999c0,-0.10379 -0.10379,-0.10379 -0.10379,-0.20758c-2.38723,-2.38723 -3.52896,-4.87826 -3.32137,-7.47308c0.31138,-5.18964 5.8124,-9.54893 8.51101,-11.41721c0.41517,-0.31138 0.62276,-0.62276 0.93413,-0.72655l0.10379,-0.10379c4.67068,-3.32137 10.0679,-4.98205 16.19168,-4.98205c4.25551,0 7.36929,0.83034 8.30342,1.14172c0.10379,0 0.20758,0 0.31138,0.10379c2.49103,1.55689 4.46309,3.52896 5.91619,5.91619l0.10379,0.10379c0.31138,0.51897 0.31138,1.03793 0.41517,1.4531c0.20758,0 0.41517,0.10379 0.51897,0.31138c0.72655,1.66068 1.03793,2.9062 1.14172,3.63275c1.03793,0.83034 1.97207,1.24552 2.69862,1.24552c0.72655,0 1.24552,-0.41517 1.76448,-1.34931c1.4531,-2.59482 1.14172,-7.78446 0.10379,-9.34135v-0.10379c-1.24552,-2.38723 -3.00999,-4.56688 -5.39723,-6.33136h-0.10379v-0.10379c-0.20758,-0.31138 -0.41517,-0.51897 -0.72655,-0.72655c-7.1617,-3.94413 -14.21961,-5.91619 -21.06993,-5.91619c-9.44514,0 -16.39926,3.73654 -20.23959,7.05791c-4.56688,3.63275 -7.78446,8.51101 -8.51101,12.55893c-1.66068,8.71859 2.28344,15.15375 3.32137,16.71064c0.20758,0.20758 0.20758,0.41517 0.10379,0.62276c-0.10379,0.31138 -0.31138,0.41517 -0.51897,0.41517c-1.86827,0.51897 -12.03997,3.73654 -20.65477,11.521c-10.89824,10.0679 -15.15375,23.24958 -12.66272,39.64885c1.66068,5.39723 8.09584,22.93821 23.76855,26.46716h0.10379c5.7086,2.38723 12.55893,3.52896 20.34338,3.52896c5.29343,0 10.0679,-0.41517 13.49307,-1.14172c1.97207,-0.31138 3.84033,-0.62276 5.50102,-1.14172h0.10379c11.62479,-2.17965 19.51304,-6.95412 23.56097,-14.11582z" data-paper-data="{&quot;isPathIcon&quot;:true}"></path></g></g></g></svg>