<svg xmlns="http://www.w3.org/2000/svg" version="1.1" xmlns:xlink="http://www.w3.org/1999/xlink" xmlns:svgjs="http://svgjs.com/svgjs" width="1000" height="1000"><rect width="1000" height="1000" rx="200" ry="200" fill="#c2ffde"></rect><g transform="matrix(6.666666666666667,0,0,6.666666666666667,164.4467480977376,100.00012969970703)"><svg xmlns="http://www.w3.org/2000/svg" version="1.1" xmlns:xlink="http://www.w3.org/1999/xlink" xmlns:svgjs="http://svgjs.com/svgjs" width="100" height="120"><svg xmlns:mydata="http://www.w3.org/2000/svg" mydata:contrastcolor="78D64B" mydata:template="Contrast" mydata:presentation="2.5" mydata:layouttype="undefined" mydata:specialfontid="undefined" mydata:id1="917" mydata:id2="000" mydata:companyname="Earth Side" mydata:companytagline="Retreats" version="1.1" xmlns="http://www.w3.org/2000/svg" xmlns:xlink="http://www.w3.org/1999/xlink" viewBox="60 175 100 120"><g fill-rule="nonzero" stroke="none" stroke-width="10" stroke-linecap="butt" stroke-linejoin="miter" stroke-miterlimit="10" stroke-dasharray="" stroke-dashoffset="0" font-family="none" font-weight="none" font-size="none" text-anchor="none" style="mix-blend-mode: normal"><g fill="#978667" data-paper-data="{&quot;fillRule&quot;:&quot;nonzero&quot;,&quot;fillRuleOriginal&quot;:&quot;nonzero&quot;,&quot;isIcon&quot;:true,&quot;iconStyle&quot;:&quot;standalone&quot;,&quot;selectedEffects&quot;:{&quot;container&quot;:&quot;&quot;,&quot;transformation&quot;:&quot;&quot;,&quot;pattern&quot;:&quot;&quot;},&quot;bounds&quot;:{&quot;x&quot;:64.99999999999999,&quot;y&quot;:175.7343131261082,&quot;width&quot;:90.78345873979039,&quot;height&quot;:118.53137374778362},&quot;iconType&quot;:&quot;icon&quot;,&quot;rawIconId&quot;:&quot;8f5cf720-f14b-4ff9-963b-604b6e14c36a&quot;,&quot;isDetailed&quot;:false,&quot;suitableAsStandaloneIcon&quot;:true}"><path d="M152.56504,277.8664c3.21758,-5.50102 3.42516,-11.521 3.11378,-15.56892c-0.31138,-3.63275 -1.14172,-6.43515 -1.4531,-7.26549l-0.10379,-0.10379c-0.10379,-0.10379 -0.31138,-0.20758 -0.41517,-0.31138c-0.41517,-1.24552 -1.03793,-2.49103 -1.86827,-3.63275c-0.51897,-0.83034 -1.24552,-1.55689 -2.17965,-2.17965l-0.10379,-0.10379c-2.17965,-2.38723 -5.18964,-4.04792 -9.02997,-4.98205h-0.20758c-0.20758,-0.10379 -0.62276,-0.31138 -1.34931,-0.62276c-0.51897,-0.31138 -1.03793,-0.51897 -1.55689,-0.51897h-0.10379c-2.17965,-0.41517 -4.3593,-0.72655 -6.53894,-1.03793c-0.31138,0 -0.51897,-0.10379 -0.83034,-0.10379h-0.93413h-0.41517h-0.10379c-0.10379,0.10379 -0.20758,0.10379 -0.41517,0.10379c-0.93413,0.10379 -1.66068,0.41517 -1.97207,0.83034c1.66068,0.31138 4.98205,1.24552 9.02997,3.21758c3.00999,1.34931 5.7086,3.11378 7.99204,5.08585c2.80241,2.49103 4.87826,5.29343 6.22757,8.30342v0.41517v0.10379v0.20758c1.55689,3.00999 0.51897,5.91619 -0.31138,8.40722c-0.10379,0.31138 -0.20758,0.51897 -0.20758,0.72655c-1.4531,4.67068 -3.84033,8.19963 -7.1617,10.37928c-0.83034,0.51897 -1.66068,1.03793 -2.49103,1.76448c-1.55689,1.24552 -3.11378,2.38723 -5.08585,3.21758l-2.69862,1.14172c-0.72655,0.31138 -1.4531,0.51897 -2.17965,0.83034c-0.41517,0.10379 -0.72655,0.31138 -0.93413,0.41517h-0.10379c-5.50102,1.34931 -10.58687,2.07586 -15.25754,2.07586c-10.0679,0 -18.26753,-3.11378 -24.59889,-9.44514c-4.3593,-4.46309 -7.57687,-10.48307 -9.75652,-17.85236v-0.10379c-1.03793,-9.02997 0.93413,-16.60685 6.01998,-22.73062c4.77447,-5.8124 11.93617,-10.27548 21.5889,-13.28548c7.78446,-2.38723 14.73858,-3.11378 17.3334,-3.42516h0.10379c0.93413,0.10379 1.86827,0.31138 2.69862,0.62276c0.83034,0.31138 1.66068,0.41517 2.49103,0.72655c1.14172,0.31138 2.38723,0.51897 3.52896,1.24552c0.93413,0.51897 1.66068,0.72655 2.17965,0.72655c0.31138,0 0.72655,0 1.24552,-1.14172c-0.83034,-1.76448 -1.34931,-3.63275 -1.76448,-5.60481c-1.24552,-0.51897 -2.69862,-1.14172 -4.25551,-1.55689v-0.10379c-0.20758,-0.10379 -0.51897,-0.10379 -0.83034,-0.10379c-0.51897,-0.10379 -1.03793,-0.20758 -1.55689,-0.51897c-2.38723,-1.14172 -4.87826,-1.55689 -7.36929,-1.97207c-1.14172,-0.31138 -1.86827,-0.20758 -3.00999,-0.51897c-3.42516,-0.72655 -6.22757,-1.66068 -8.40722,-3.00999c0,-0.10379 -0.10379,-0.10379 -0.10379,-0.20758c-2.38723,-2.38723 -3.52896,-4.87826 -3.32137,-7.47308c0.31138,-5.18964 5.8124,-9.54893 8.51101,-11.41721c0.41517,-0.31138 0.62276,-0.62276 0.93413,-0.72655l0.10379,-0.10379c4.67068,-3.32137 10.0679,-4.98205 16.19168,-4.98205c4.25551,0 7.36929,0.83034 8.30342,1.14172c0.10379,0 0.20758,0 0.31138,0.10379c2.49103,1.55689 4.46309,3.52896 5.91619,5.91619l0.10379,0.10379c0.31138,0.51897 0.31138,1.03793 0.41517,1.4531c0.20758,0 0.41517,0.10379 0.51897,0.31138c0.72655,1.66068 1.03793,2.9062 1.14172,3.63275c1.03793,0.83034 1.97207,1.24552 2.69862,1.24552c0.72655,0 1.24552,-0.41517 1.76448,-1.34931c1.4531,-2.59482 1.14172,-7.78446 0.10379,-9.34135v-0.10379c-1.24552,-2.38723 -3.00999,-4.56688 -5.39723,-6.33136h-0.10379v-0.10379c-0.20758,-0.31138 -0.41517,-0.51897 -0.72655,-0.72655c-7.1617,-3.94413 -14.21961,-5.91619 -21.06993,-5.91619c-9.44514,0 -16.39926,3.73654 -20.23959,7.05791c-4.56688,3.63275 -7.78446,8.51101 -8.51101,12.55893c-1.66068,8.71859 2.28344,15.15375 3.32137,16.71064c0.20758,0.20758 0.20758,0.41517 0.10379,0.62276c-0.10379,0.31138 -0.31138,0.41517 -0.51897,0.41517c-1.86827,0.51897 -12.03997,3.73654 -20.65477,11.521c-10.89824,10.0679 -15.15375,23.24958 -12.66272,39.64885c1.66068,5.39723 8.09584,22.93821 23.76855,26.46716h0.10379c5.7086,2.38723 12.55893,3.52896 20.34338,3.52896c5.29343,0 10.0679,-0.41517 13.49307,-1.14172c1.97207,-0.31138 3.84033,-0.62276 5.50102,-1.14172h0.10379c11.62479,-2.17965 19.51304,-6.95412 23.56097,-14.11582z" data-paper-data="{&quot;isPathIcon&quot;:true}"></path></g></g></svg></svg></g></svg>